<?xml version="1.0" encoding="utf-8"?>
<!-- Generator: Adobe Illustrator 16.0.4, SVG Export Plug-In . SVG Version: 6.00 Build 0)  -->
<!DOCTYPE svg PUBLIC "-//W3C//DTD SVG 1.1//EN" "http://www.w3.org/Graphics/SVG/1.1/DTD/svg11.dtd">
<svg version="1.1" id="Layer_1" xmlns="http://www.w3.org/2000/svg" xmlns:xlink="http://www.w3.org/1999/xlink" x="0px" y="0px"
	 width="771.352px" height="145.408px" viewBox="0 0 771.352 145.408" enable-background="new 0 0 771.352 145.408"
	 xml:space="preserve">
<path fill-rule="evenodd" clip-rule="evenodd" fill="#61E942" d="M146.345,59.99c-2.65-7.28-5.303-14.562-7.951-21.844
	c-0.743-2.043-1.484-4.085-2.23-6.127c-0.666-1.833-1.249-3.579-2.186-4.908c-3.771-5.356-8.162-8.456-13.878-9.586
	c-2.639-0.523-6.828-0.887-10.236,0.42c-2.735-7.534-10.199-11.18-16.729-10.731c-1.508,0.103-3.181,0.758-4.941,1.397
	c-1.943,0.708-3.891,1.418-5.838,2.125c-3.171,1.167-6.343,2.333-9.514,3.5c-0.507,0.305-1.014,0.611-1.521,0.917
	c-0.79,0.573-1.562,1.208-2.229,1.864c-3.577,3.533-6.13,10.78-3.7,17.075c-11.75,4.278-23.504,8.555-35.253,12.832
	c-4.191,1.527-8.383,3.051-12.574,4.578c-2.656,0.965-5.54,1.843-7.527,3.174c-5.231,3.509-8.265,7.999-9.526,13.35
	c-0.457,1.948-0.566,4.055-0.487,6.244c0.04,1.184,0.536,2.41,0.562,3.645c2.201,6.078,4.4,12.156,6.599,18.232
	c2.942,8.084,5.887,16.168,8.827,24.251c1.559,4.284,3.094,9.725,5.235,12.989c3.878,5.908,10.27,9.398,16.775,9.659
	c1.326,0.052,2.71-0.042,4.109-0.188c0.702-0.133,1.405-0.269,2.106-0.401c2.634-0.948,5.269-1.894,7.903-2.841
	c6.051-2.203,12.102-4.406,18.156-6.609c16.923-6.16,33.854-12.322,50.778-18.482c5.079-1.848,10.157-3.695,15.238-5.545
	c3.433-1.25,7.071-2.432,9.509-4.115c5.954-4.107,8.913-10.297,9.188-17.076c0.148-3.67-1.289-7.525-2.957-12.108
	C150.152,70.449,148.247,65.22,146.345,59.99z M74.858,27.668c-0.035-2.261,0.673-4.088,2.258-5.579
	c0.352-0.262,0.703-0.524,1.057-0.786c0.392-0.189,0.782-0.38,1.174-0.572c2.598-0.945,5.196-1.89,7.794-2.835
	c1.382-0.503,2.919-1.236,4.217-1.391c3.492-0.414,6.461,1.144,7.886,5.196c-0.392,0.378-1.437,0.594-2.033,0.811
	c-1.602,0.584-3.206,1.169-4.809,1.752c-5.612,2.043-11.228,4.086-16.841,6.129C75.008,29.669,74.87,28.369,74.858,27.668z
	 M62.94,121.08c-4.318,1.571-8.64,3.145-12.959,4.719c-2.289,0.831-4.93,2.062-7.042,2.307c-3.172,0.371-6.002-0.723-8.098-2.683
	c-2.45-2.294-3.96-7.987-5.482-12.173c-3.262-8.959-6.523-17.92-9.785-26.881c-1.563-4.301-4.328-10.254-3.915-13.65
	c0.295-2.427,1.446-4.843,3.421-6.474c0.5-0.354,1.002-0.707,1.504-1.057c0.358-0.178,0.719-0.358,1.076-0.537
	c5.217-1.9,10.438-3.799,15.654-5.698c0.015,0.006,0.028,0.014,0.044,0.021c-0.327,0.7-0.654,1.399-0.979,2.102
	c-0.535,1.566-1.259,3.081-1.708,4.69c-1.563,5.588-2.031,10.625-1.713,17.151c0.097,1.98,0.656,3.988,1.007,6.062
	c0.583,3.418,2.675,8.342,4.301,11.113c1.012,1.729,1.823,3.335,2.949,4.811c3.878,5.088,8.026,8.768,12.775,11.844
	c1.937,1.255,4.046,2.479,6.221,3.221c0.831,0.285,1.715,0.941,2.618,1.01c0.034,0.023,0.066,0.047,0.101,0.072
	C62.933,121.056,62.938,121.07,62.94,121.08z M95.236,102.714c-1.187,0.889-2.515,1.648-3.865,2.46
	c-0.858,0.396-1.721,0.796-2.579,1.192c-0.815,0.458-2.006,0.758-2.795,0.908c-0.998,0.193-1.756,0.562-2.691,0.689
	c-2.505,0.338-4.809,0.506-7.031,0.344c-8.645-0.632-15.69-4.603-21.273-11.838c-2.053-2.663-4.43-7.057-5.121-11.178
	c-0.351-2.08-0.749-4.105-0.704-6.027c0.21-9.257,3.447-16.554,10.341-22.69c1.366-1.217,3.063-2.126,4.762-3.186
	c1.104-0.498,2.203-0.995,3.305-1.496c13.052-4.758,24.317,0.358,31.581,8.124c4.689,5.011,7.494,13.508,7.38,20.273
	C106.401,88.886,102.361,97.384,95.236,102.714z M140.388,84.138c0.199,1.644,0.14,3.104-0.227,4.479
	c-0.581,2.184-2.013,4.031-4.046,5.54c-1.622,1.201-4.468,1.917-6.678,2.719c-4.416,1.608-8.832,3.216-13.246,4.823
	c-0.004-0.01-0.009-0.02-0.012-0.031c0.508-0.926,1.021-1.851,1.531-2.773c0.227-0.507,0.456-1.014,0.68-1.52
	c0.603-1.409,1.285-2.801,1.755-4.271c1.952-6.105,2.713-12.348,2.085-19.721c-0.146-1.696-0.608-3.396-0.929-5.148
	c-0.197-0.667-0.392-1.335-0.583-2.003c-0.168-0.878-0.593-1.925-0.945-2.89c-0.855-2.352-1.697-4.424-2.807-6.316
	c-1.59-2.715-3.195-5.397-5.149-7.461c-3.364-3.559-6.297-6.227-10.088-8.752c-1.312-0.746-2.624-1.491-3.938-2.236
	c-0.546-0.33-1.501-0.447-1.938-0.93c3.797-1.382,7.596-2.763,11.392-4.146c1.992-0.726,4.295-1.816,6.09-1.925
	c1.996-0.121,3.909,0.119,5.469,0.952c1.664,0.893,3.021,2.098,4.246,3.977c0.59,0.906,0.933,2.169,1.353,3.322
	c0.744,2.042,1.486,4.083,2.229,6.127c3.394,9.323,6.787,18.646,10.181,27.97c0.803,2.202,1.604,4.406,2.404,6.608
	C139.657,81.74,140.245,83.007,140.388,84.138z"/>
<g>
	<path fill="#FFFFFF" d="M279.426,123.888l3.62,14.682c-9.186,4.559-21.721,6.838-37.609,6.838c-20.85,0-37.658-6.184-50.43-18.553
		s-19.156-29.113-19.156-50.23c0-20.847,6.771-37.925,20.312-51.234C209.704,12.084,227.47,5.43,249.46,5.43
		c13.877,0,25.205,2.079,33.988,6.234l-4.425,15.084c-8.647-3.887-18.235-5.832-28.76-5.832c-16.827,0-30.151,4.945-39.972,14.832
		c-9.822,9.89-14.732,23.381-14.732,40.474c0,16.225,4.727,29.197,14.18,38.918c9.452,9.721,22.625,14.58,39.52,14.58
		C261.124,129.72,271.181,127.777,279.426,123.888z"/>
	<path fill="#FFFFFF" d="M308.989,27.754l18.301-5.43v23.53h25.945v14.279H327.29v50.682c0,6.771,1.09,11.648,3.269,14.631
		c2.178,2.984,5.647,4.475,10.408,4.475c4.356,0,7.909-0.402,10.659-1.207l0.805,14.078c-4.626,1.742-10.191,2.615-16.693,2.615
		c-17.833,0-26.748-11.127-26.748-33.387V60.134h-15.285V45.854h15.285V27.754z"/>
	<path fill="#FFFFFF" d="M373.949,143.195V76.826c0-12.602-0.269-22.926-0.805-30.971h16.491l1.207,19.509
		c2.479-6.838,6.268-12.168,11.363-15.989c5.094-3.821,10.625-5.731,16.592-5.731c1.273,0,2.949,0.135,5.028,0.402v17.697
		c-1.811-0.401-3.956-0.603-6.436-0.603c-6.772,0-12.587,2.649-17.447,7.944c-4.861,5.296-7.29,12.837-7.29,22.625v51.486H373.949z"
		/>
	<path fill="#FFFFFF" d="M442.328,143.195V0h18.704v143.195H442.328z"/>
	<path fill="#61E942" d="M543.287,143.195h-20.916L476.517,7.643h20.312l25.542,78.939c4.96,15.42,8.781,28.055,11.464,37.91
		c3.484-13.34,8.781-30.033,15.888-50.078l23.732-66.771h19.91L543.287,143.195z"/>
	<path fill="#61E942" d="M614.484,132.335c0,3.754-1.19,6.873-3.569,9.352c-2.381,2.479-5.415,3.721-9.101,3.721
		c-3.62,0-6.604-1.258-8.95-3.771c-2.348-2.514-3.52-5.613-3.52-9.301c0-3.822,1.189-6.99,3.57-9.504
		c2.379-2.514,5.412-3.771,9.101-3.771c3.686,0,6.687,1.225,9,3.672C613.328,125.179,614.484,128.38,614.484,132.335z"/>
	<path fill="#61E942" d="M657.924,16.291c0,3.353-1.106,6.168-3.318,8.446c-2.213,2.28-5.129,3.419-8.749,3.419
		c-3.486,0-6.335-1.139-8.547-3.419c-2.213-2.278-3.318-5.094-3.318-8.446c0-3.285,1.121-6.05,3.368-8.297
		c2.245-2.245,5.145-3.369,8.698-3.369c3.419,0,6.251,1.124,8.497,3.369C656.8,10.241,657.924,13.006,657.924,16.291z
		 M655.31,143.195h-18.704v-97.34h18.704V143.195z"/>
	<path fill="#61E942" d="M685.273,143.195V72.604c0-10.793-0.269-19.71-0.805-26.749h16.491l1.609,16.491
		c3.083-5.631,7.607-10.156,13.575-13.574c5.966-3.42,12.503-5.129,19.609-5.129c10.189,0,18.669,3.604,25.441,10.81
		c6.771,7.208,10.156,17.749,10.156,31.625v57.117h-18.704V88.089c0-9.184-1.979-16.306-5.933-21.369
		c-3.957-5.061-9.688-7.592-17.196-7.592c-6.704,0-12.637,2.514-17.799,7.541c-5.163,5.028-7.742,11.162-7.742,18.402v58.123
		H685.273z"/>
</g>
</svg>
