<?xml version="1.0" encoding="utf-8"?>
<!-- Generator: Adobe Illustrator 16.0.4, SVG Export Plug-In . SVG Version: 6.00 Build 0)  -->
<!DOCTYPE svg PUBLIC "-//W3C//DTD SVG 1.1//EN" "http://www.w3.org/Graphics/SVG/1.1/DTD/svg11.dtd">
<svg version="1.1" id="Layer_1" xmlns="http://www.w3.org/2000/svg" xmlns:xlink="http://www.w3.org/1999/xlink" x="0px" y="0px"
	 width="24px" height="24px" viewBox="0 0 24 24" enable-background="new 0 0 24 24" xml:space="preserve">
<path fill="#444444" stroke="#444444" stroke-miterlimit="10" d="M7.603,15.412c0-1.869,0.728-3.626,2.049-4.948
	c1.283-1.283,2.66-1.917,4.396-2.027l-1.621,1.622c-0.498,0.498-0.498,1.301,0,1.798c0.247,0.249,0.573,0.374,0.898,0.374
	s0.651-0.125,0.899-0.373l4.715-4.714l-4.715-4.715c-0.497-0.497-1.302-0.497-1.798,0c-0.498,0.498-0.498,1.301,0,1.799l1.667,1.667
	C11.66,6.004,9.611,6.907,7.854,8.667c-1.802,1.8-2.794,4.197-2.794,6.746c0,2.477,0.786,4.318,2.627,6.16
	c0.249,0.248,0.574,0.371,0.899,0.371c0.325,0,0.651-0.125,0.899-0.373c0.497-0.496,0.497-1.303,0-1.799
	C8.113,18.402,7.603,17.219,7.603,15.412z"/>
</svg>
